<?xml version="1.0" encoding="UTF-8"?>
<svg fill="none" viewBox="0 0 189 62" xmlns="http://www.w3.org/2000/svg">
<path d="m3.7981 39.443c-5.5086-11.882-1.3774-32.403-0.2583-37.348 0.14607-0.64547 0.72183-1.0952 1.3836-1.0952h40.153c0.6618 0 1.2375 0.44974 1.3836 1.0952 1.1191 4.9452 5.2503 25.466-0.2583 37.348-4.3327 9.3457-17.113 18.705-20.416 21.016-0.4775 0.3341-1.0951 0.3341-1.5726 0-3.3029-2.3111-16.083-11.671-20.416-21.016z" stroke="#C2BCD2" stroke-width="1.4458"/>
<mask id="a" fill="white">
<path d="m25 18c-5.3555 0-10.055 2.713-12.709 6.7949-0.279 0.4291-0.279 0.9811 0 1.4102 2.6539 4.0819 7.3538 6.7949 12.709 6.7949s10.055-2.713 12.709-6.7949c0.279-0.4291 0.279-0.9811 0-1.4102-2.6539-4.0819-7.3538-6.7949-12.709-6.7949zm0 10c1.6568 0 3-1.3431 3-3s-1.3432-3-3-3c-1.6569 0-3 1.3431-3 3s1.3431 3 3 3z" clip-rule="evenodd" fill-rule="evenodd"/>
</mask>
<path d="m37.709 26.205-1.2122-0.7881 1.2122 0.7881zm0-1.4102-1.2122 0.7881 1.2122-0.7881zm-24.206 0.7881c2.3904-3.6767 6.637-6.1372 11.497-6.1372v-2.8916c-5.8507 0-11.004 2.9656-13.921 7.4526l2.4242 1.5762zm11.497 5.9712c-4.8602 0-9.1068-2.4605-11.497-6.1372l-2.4242 1.5762c2.9173 4.487 8.0707 7.4526 13.921 7.4526v-2.8916zm11.497-6.1372c-2.3904 3.6767-6.6369 6.1372-11.497 6.1372v2.8916c5.8507 0 11.004-2.9656 13.921-7.4526l-2.4243-1.5762zm-11.497-5.9712c4.8602 0 9.1067 2.4605 11.497 6.1372l2.4243-1.5762c-2.9173-4.487-8.0707-7.4526-13.921-7.4526v2.8916zm1.5542 5.5542c0 0.8584-0.6958 1.5542-1.5542 1.5542v2.8916c2.4553 0 4.4458-1.9905 4.4458-4.4458h-2.8916zm-1.5542-1.5542c0.8584 0 1.5542 0.6958 1.5542 1.5542h2.8916c0-2.4553-1.9905-4.4458-4.4458-4.4458v2.8916zm-1.5542 1.5542c0-0.8584 0.6958-1.5542 1.5542-1.5542v-2.8916c-2.4554 0-4.4458 1.9905-4.4458 4.4458h2.8916zm1.5542 1.5542c-0.8584 0-1.5542-0.6958-1.5542-1.5542h-2.8916c0 2.4553 1.9904 4.4458 4.4458 4.4458v-2.8916zm13.921 0.439c0.5905-0.9083 0.5905-2.078 0-2.9864l-2.4243 1.5762c-0.0325-0.0501-0.0325-0.1159 0-0.166l2.4243 1.5762zm-27.843-2.9864c-0.5906 0.9084-0.5906 2.0781 0 2.9864l2.4242-1.5762c0.0326 0.0501 0.0326 0.1159 0 0.166l-2.4242-1.5762z" fill="#C2BCD2" mask="url(#a)"/>
<path d="m71.889 30.312c-1.6293 0-2.964-0.2947-4.004-0.884-1.04-0.6067-1.898-1.378-2.574-2.314l1.586-1.3c0.7107 0.884 1.456 1.5427 2.236 1.976 0.7974 0.4333 1.742 0.65 2.834 0.65 1.3174 0 2.3227-0.3033 3.016-0.91 0.6934-0.6067 1.04-1.456 1.04-2.548 0-0.884-0.2513-1.5687-0.754-2.054-0.5026-0.5027-1.378-0.858-2.626-1.066l-2.028-0.338c-0.884-0.156-1.6293-0.39-2.236-0.702-0.5893-0.312-1.066-0.6847-1.43-1.118-0.364-0.4507-0.624-0.936-0.78-1.456-0.156-0.5373-0.234-1.092-0.234-1.664 0-1.664 0.546-2.9207 1.638-3.77s2.5654-1.274 4.42-1.274c1.456 0 2.678 0.2427 3.666 0.728 1.0054 0.4853 1.8114 1.17 2.418 2.054l-1.534 1.326c-0.5026-0.6587-1.1093-1.196-1.82-1.612-0.7106-0.416-1.6293-0.624-2.756-0.624-1.2306 0-2.1753 0.26-2.834 0.78-0.6586 0.52-0.988 1.3-0.988 2.34 0 0.8147 0.2427 1.482 0.728 2.002 0.5027 0.5027 1.3954 0.8667 2.678 1.092l1.95 0.338c0.884 0.156 1.6294 0.39 2.236 0.702 0.6067 0.312 1.092 0.6847 1.456 1.118 0.3814 0.4333 0.65 0.9187 0.806 1.456s0.234 1.1007 0.234 1.69c0 1.6813-0.5546 2.9987-1.664 3.952-1.092 0.9533-2.652 1.43-4.68 1.43zm15.876 0c-0.9707 0-1.846-0.1647-2.626-0.494-0.7627-0.3293-1.4214-0.7973-1.976-1.404-0.5374-0.624-0.9534-1.3607-1.248-2.21-0.2947-0.8667-0.442-1.8287-0.442-2.886 0-1.0747 0.1473-2.0453 0.442-2.912 0.312-0.8667 0.7366-1.6033 1.274-2.21 0.5373-0.624 1.1786-1.1007 1.924-1.43 0.7626-0.3293 1.6033-0.494 2.522-0.494 0.9013 0 1.716 0.1647 2.444 0.494 0.7453 0.3293 1.378 0.7887 1.898 1.378 0.52 0.572 0.9186 1.2567 1.196 2.054 0.2773 0.7973 0.416 1.6727 0.416 2.626v0.988h-9.932v0.624c0 0.5893 0.0953 1.1353 0.286 1.638 0.1906 0.5027 0.4593 0.936 0.806 1.3 0.364 0.364 0.7973 0.65 1.3 0.858 0.52 0.1907 1.092 0.286 1.716 0.286 0.9013 0 1.6813-0.208 2.34-0.624 0.6586-0.416 1.1613-0.988 1.508-1.716l1.534 1.04c-0.3987 0.9013-1.066 1.6467-2.002 2.236-0.9187 0.572-2.0454 0.858-3.38 0.858zm-0.13-12.324c-0.572 0-1.1007 0.104-1.586 0.312-0.4854 0.208-0.91 0.494-1.274 0.858-0.3467 0.364-0.624 0.7973-0.832 1.3-0.1907 0.4853-0.286 1.0227-0.286 1.612v0.182h7.696v-0.286c0-0.5893-0.0954-1.1267-0.286-1.612-0.1734-0.4853-0.4247-0.9013-0.754-1.248-0.312-0.364-0.702-0.6413-1.17-0.832-0.4507-0.1907-0.9534-0.286-1.508-0.286zm15.954 12.324c-0.97 0-1.837-0.1647-2.6-0.494-0.745-0.3467-1.3777-0.8233-1.8977-1.43s-0.9187-1.3433-1.196-2.21c-0.26-0.8667-0.39-1.8287-0.39-2.886s0.1387-2.0193 0.416-2.886 0.676-1.6033 1.196-2.21c0.52-0.624 1.1527-1.1007 1.8977-1.43 0.746-0.3293 1.595-0.494 2.548-0.494 1.3 0 2.358 0.286 3.172 0.858 0.815 0.572 1.413 1.3173 1.794 2.236l-1.664 0.884c-0.242-0.6933-0.65-1.2307-1.222-1.612-0.554-0.3813-1.248-0.572-2.08-0.572-0.606 0-1.152 0.104-1.638 0.312-0.468 0.1907-0.866 0.468-1.196 0.832-0.329 0.364-0.58 0.7973-0.7537 1.3-0.156 0.5027-0.234 1.0487-0.234 1.638v2.288c0 0.5893 0.078 1.1353 0.234 1.638 0.1737 0.5027 0.4247 0.936 0.7537 1.3 0.33 0.364 0.737 0.65 1.222 0.858 0.486 0.1907 1.04 0.286 1.664 0.286 0.902 0 1.647-0.208 2.236-0.624 0.59-0.416 1.058-0.988 1.404-1.716l1.482 1.014c-0.398 0.9013-1.022 1.6467-1.872 2.236-0.832 0.5893-1.924 0.884-3.276 0.884zm18.294-2.496h-0.104c-0.139 0.3293-0.312 0.65-0.52 0.962-0.208 0.2947-0.468 0.5547-0.78 0.78-0.295 0.2253-0.65 0.4073-1.066 0.546s-0.901 0.208-1.456 0.208c-1.404 0-2.531-0.442-3.38-1.326-0.849-0.9013-1.274-2.1667-1.274-3.796v-8.606h2.08v8.242c0 1.2307 0.269 2.1493 0.806 2.756 0.537 0.5893 1.326 0.884 2.366 0.884 0.416 0 0.823-0.052 1.222-0.156s0.754-0.26 1.066-0.468 0.563-0.468 0.754-0.78c0.191-0.3293 0.286-0.7193 0.286-1.17v-9.308h2.08v13.416h-2.08v-2.184zm6.62 0.416h3.926v-9.88h-3.926v-1.768h6.006v3.38h0.13c0.277-1.0573 0.797-1.8807 1.56-2.47 0.78-0.6067 1.768-0.91 2.964-0.91h1.872v2.08h-2.522c-1.196 0-2.167 0.3467-2.912 1.04-0.728 0.6933-1.092 1.6033-1.092 2.73v5.798h5.2v1.768h-11.206v-1.768zm22.22-14.612c-0.607 0-1.031-0.1213-1.274-0.364-0.243-0.26-0.364-0.5807-0.364-0.962v-0.416c0-0.3813 0.121-0.6933 0.364-0.936 0.243-0.26 0.667-0.39 1.274-0.39s1.031 0.13 1.274 0.39c0.243 0.2427 0.364 0.5547 0.364 0.936v0.416c0 0.3813-0.121 0.702-0.364 0.962-0.243 0.2427-0.667 0.364-1.274 0.364zm-5.876 14.612h4.836v-9.88h-4.836v-1.768h6.916v11.648h4.524v1.768h-11.44v-1.768zm21.284 1.768c-1.023 0-1.777-0.286-2.262-0.858-0.468-0.572-0.702-1.3087-0.702-2.21v-8.58h-4.472v-1.768h3.328c0.45 0 0.762-0.0867 0.936-0.26 0.19-0.1907 0.286-0.5113 0.286-0.962v-3.51h2.002v4.732h6.11v1.768h-6.11v9.88h6.11v1.768h-5.226zm19.282-13.416h2.08l-6.656 16.354c-0.156 0.3813-0.33 0.7107-0.52 0.988-0.191 0.2947-0.416 0.5287-0.676 0.702-0.26 0.1907-0.572 0.3293-0.936 0.416-0.364 0.104-0.798 0.156-1.3 0.156h-1.976v-1.768h3.12l1.508-3.692-5.408-13.156h2.132l2.262 5.616 2.002 5.096h0.104l2.002-5.096 2.262-5.616z" fill="#C2BCD2"/>
<path d="m65.456 55v-11.168h7.04v1.168h-5.696v3.76h5.216v1.168h-5.216v5.072h-1.344zm12.954 0.192c-0.576 0-1.0987-0.1013-1.568-0.304-0.4587-0.2027-0.8534-0.4907-1.184-0.864-0.32-0.384-0.5654-0.8373-0.736-1.36-0.1707-0.5333-0.256-1.1307-0.256-1.792 0-0.6507 0.0853-1.2427 0.256-1.776 0.1706-0.5333 0.416-0.9867 0.736-1.36 0.3306-0.384 0.7253-0.6773 1.184-0.88 0.4693-0.2027 0.992-0.304 1.568-0.304s1.0933 0.1013 1.552 0.304c0.4693 0.2027 0.864 0.496 1.184 0.88 0.3306 0.3733 0.5813 0.8267 0.752 1.36 0.1706 0.5333 0.256 1.1253 0.256 1.776 0 0.6613-0.0854 1.2587-0.256 1.792-0.1707 0.5227-0.4214 0.976-0.752 1.36-0.32 0.3733-0.7147 0.6613-1.184 0.864-0.4587 0.2027-0.976 0.304-1.552 0.304zm0-1.104c0.7146 0 1.2906-0.2133 1.728-0.64 0.4373-0.4267 0.656-1.088 0.656-1.984v-1.184c0-0.896-0.2187-1.5573-0.656-1.984-0.4374-0.4267-1.0134-0.64-1.728-0.64-0.7147 0-1.2907 0.2133-1.728 0.64-0.4374 0.4267-0.656 1.088-0.656 1.984v1.184c0 0.896 0.2186 1.5573 0.656 1.984 0.4373 0.4267 1.0133 0.64 1.728 0.64zm6.0257-0.176h2.416v-6.08h-2.416v-1.088h3.696v2.08h0.08c0.1707-0.6507 0.4907-1.1573 0.96-1.52 0.48-0.3733 1.088-0.56 1.824-0.56h1.152v1.28h-1.552c-0.736 0-1.3333 0.2133-1.792 0.64-0.448 0.4267-0.672 0.9867-0.672 1.68v3.568h3.2v1.088h-6.896v-1.088zm15.114-0.256h-0.064c-0.0854 0.2027-0.192 0.4-0.32 0.592-0.128 0.1813-0.288 0.3413-0.48 0.48-0.1814 0.1387-0.4 0.2507-0.656 0.336s-0.5547 0.128-0.896 0.128c-0.864 0-1.5574-0.272-2.08-0.816-0.5227-0.5547-0.784-1.3333-0.784-2.336v-5.296h1.28v5.072c0 0.7573 0.1653 1.3227 0.496 1.696 0.3306 0.3627 0.816 0.544 1.456 0.544 0.256 0 0.5066-0.032 0.752-0.096 0.2453-0.064 0.464-0.16 0.656-0.288s0.3466-0.288 0.464-0.48c0.1173-0.2027 0.176-0.4427 0.176-0.72v-5.728h1.2801v8.256h-1.2801v-1.344zm3.7061 1.344v-8.256h1.184v0.96h0.064c0.128-0.32 0.309-0.592 0.544-0.816 0.234-0.224 0.581-0.336 1.04-0.336 0.48 0 0.837 0.1227 1.072 0.368 0.234 0.2347 0.378 0.544 0.432 0.928h0.048c0.149-0.3733 0.362-0.6827 0.64-0.928 0.277-0.2453 0.661-0.368 1.152-0.368 0.672 0 1.12 0.2347 1.344 0.704 0.234 0.4693 0.352 1.1413 0.352 2.016v5.728h-1.184v-5.52c0-0.704-0.075-1.1893-0.224-1.456-0.139-0.2773-0.4-0.416-0.784-0.416-0.342 0-0.619 0.112-0.832 0.336-0.214 0.2133-0.32 0.544-0.32 0.992v6.064h-1.184v-5.52c0-0.704-0.075-1.1893-0.224-1.456-0.139-0.2773-0.395-0.416-0.768-0.416-0.342 0-0.624 0.112-0.848 0.336-0.214 0.2133-0.32 0.544-0.32 0.992v6.064h-1.184z" fill="#C2BCD2"/>
</svg>
