<svg width="20" height="19" viewBox="0 0 20 19" fill="none" xmlns="http://www.w3.org/2000/svg">
<path d="M7.54545 17C6.92697 17 7.03207 16.7528 6.81876 16.1293L5 9.79257L19 1" fill="#F5F3F8" fill-opacity="0.5"/>
<path d="M7.5 17C8 17 8.5 16.5 8.5 16.5L11.4702 14.4522L7.84149 12.54" fill="#B5BEBA"/>
<path d="M7.83511 12.5388L15.247 18.7412C16.0928 19.2698 16.7032 18.9961 16.9139 17.8518L19.931 1.7485C20.2398 0.345812 19.4589 -0.290383 18.6497 0.125691L0.93382 7.86303C-0.275458 8.41241 -0.268408 9.17656 0.713393 9.51706L3.51668 10.5081C4.60907 10.8942 5.82117 10.723 6.76386 10.0494L15.7849 3.60322C16.2818 3.26194 16.7378 3.44542 16.3635 3.82167" fill="#C2BCD2"/>
</svg>
